<svg preserveAspectRatio="none" width="100%" height="100%" overflow="visible" style="display: block;" viewBox="0 0 42.5 40" fill="none" xmlns="http://www.w3.org/2000/svg">
<g id="Symbol">
<path id="Vector" d="M20.8875 40C31.9539 40 40.925 31.0457 40.925 20C40.925 8.9543 31.9539 0 20.8875 0C9.82109 0 0.85 8.9543 0.85 20C0.85 31.0457 9.82109 40 20.8875 40Z" fill="var(--fill-0, #FFBC00)"/>
<path id="Vector_2" d="M42.5 14.8596V9.27011H0V14.8971C0.1125 14.8971 0.2125 14.8596 0.3125 14.8596C3.0625 14.8596 5.3 17.1553 5.3 20C5.3 22.8447 3.075 25.1404 0.3125 25.1404C0.2 25.1404 0.1 25.1154 0 25.1029V30.7299H42.5V25.1404C39.75 25.1404 37.5125 22.8447 37.5125 20C37.5125 17.1553 39.7375 14.8596 42.5 14.8596Z" fill="var(--fill-0, #0D2772)"/>
<path id="Vector_3" d="M9.55003 10.3805H8.07503V13.5746H9.55003V10.3805Z" fill="var(--fill-0, white)"/>
<path id="Vector_4" d="M9.55003 15.471H8.07503V18.665H9.55003V15.471Z" fill="var(--fill-0, white)"/>
<path id="Vector_5" d="M9.55003 20.9981H8.07503V24.1921H9.55003V20.9981Z" fill="var(--fill-0, white)"/>
<path id="Vector_6" d="M9.55003 26.4628H8.07503V29.6568H9.55003V26.4628Z" fill="var(--fill-0, white)"/>
<path id="Vector_7" d="M35.1375 10.3805H33.6625V13.5746H35.1375V10.3805Z" fill="var(--fill-0, white)"/>
<path id="Vector_8" d="M35.1375 15.471H33.6625V18.665H35.1375V15.471Z" fill="var(--fill-0, white)"/>
<path id="Vector_9" d="M35.1375 20.9981H33.6625V24.1921H35.1375V20.9981Z" fill="var(--fill-0, white)"/>
<path id="Vector_10" d="M35.1375 26.4628H33.6625V29.6568H35.1375V26.4628Z" fill="var(--fill-0, white)"/>
</g>
</svg>
