<svg preserveAspectRatio="none" width="100%" height="100%" overflow="visible" style="display: block;" viewBox="0 0 40.6114 40" fill="none" xmlns="http://www.w3.org/2000/svg">
<g id="Symbol">
<path id="Vector" d="M20.6113 40C31.657 40 40.6113 31.0457 40.6113 20C40.6113 8.9543 31.657 0 20.6113 0C9.56565 0 0.611342 8.9543 0.611342 20C0.611342 31.0457 9.56565 40 20.6113 40Z" fill="var(--fill-0, #FFBC00)"/>
<path id="Vector_2" d="M30.1684 15.6082H0V31.5783H30.1684V15.6082Z" fill="var(--fill-0, white)"/>
<path id="Vector_3" d="M0 12.9507C0 12.2645 0.548971 11.7156 1.23518 11.7156H28.9333C29.6195 11.7156 30.1684 12.2645 30.1684 12.9507V17.3799H0V12.9507ZM0 21.1479V33.1129C0 33.7991 0.548971 34.3481 1.23518 34.3481H28.9333C29.6195 34.3481 30.1684 33.7991 30.1684 33.1129V21.1479H0ZM3.76794 24.9158H9.41984V30.5677H3.76794V24.9158V24.9158Z" fill="var(--fill-0, #0D2772)"/>
</g>
</svg>
