<svg preserveAspectRatio="none" width="100%" height="100%" overflow="visible" style="display: block;" viewBox="0 0 152.988 18.175" fill="none" xmlns="http://www.w3.org/2000/svg">
<g id="Typography">
<path d="M19.4 0H21.75V6.875C22.15 6.3875 22.6625 6.0125 23.3 5.7375C23.9375 5.4625 24.6375 5.32501 25.4 5.32501C26.3375 5.32501 27.15 5.525 27.8625 5.9375C28.575 6.35 29.125 6.94999 29.525 7.76249C29.925 8.57499 30.125 9.575 30.125 10.775V18H27.65V11.075C27.65 9.91248 27.4125 9.0125 26.925 8.4C26.4375 7.7875 25.7375 7.47501 24.8 7.47501C23.8625 7.47501 23.0875 7.78749 22.55 8.42499C22.0125 9.06249 21.75 9.98749 21.75 11.2V18H19.4V0Z" fill="var(--fill-0, #1F1F1F)"/>
<path d="M0 9.24999C0 7.93749 0.225 6.72501 0.675001 5.63751C1.125 4.55001 1.75 3.6 2.55 2.8125C3.35 2.025 4.275 1.4125 5.3375 0.974998C6.4 0.537498 7.5375 0.325012 8.775 0.325012C10.525 0.325012 12.0875 0.737488 13.4625 1.54999C14.8375 2.36249 15.8875 3.5375 16.6 5.075L14.6 5.79998C14.2 5.01248 13.6875 4.38749 13.075 3.89999C12.4625 3.41249 11.7875 3.06251 11.05 2.82501C10.3125 2.58751 9.575 2.47501 8.825 2.47501C7.6375 2.47501 6.575 2.74998 5.6125 3.29998C4.65 3.84998 3.9 4.63749 3.3625 5.64999C2.825 6.66249 2.55 7.86249 2.55 9.24999C2.55 10.6375 2.825 11.8125 3.3625 12.825C3.9 13.8375 4.65 14.625 5.6125 15.1875C6.575 15.75 7.6375 16.025 8.825 16.025C9.5875 16.025 10.35 15.9 11.1 15.65C11.85 15.4 12.55 15 13.2 14.4375C13.85 13.875 14.3875 13.15 14.8 12.25L16.8 12.95C16.05 14.7125 14.975 16.025 13.575 16.8875C12.175 17.75 10.575 18.175 8.775 18.175C7.5375 18.175 6.4 17.9625 5.3375 17.525C4.275 17.0875 3.35 16.475 2.55 15.675C1.75 14.875 1.125 13.925 0.675001 12.8375C0.225 11.75 0 10.55 0 9.24999Z" fill="var(--fill-0, #1F1F1F)"/>
<path fill-rule="evenodd" clip-rule="evenodd" d="M35.2625 17.3375C36.1875 17.9 37.25 18.175 38.45 18.175C39.7 18.175 40.8 17.8875 41.7625 17.325C42.725 16.7625 43.45 15.9625 43.95 14.95L41.9 14.225C41.65 14.775 41.2125 15.2125 40.6 15.5375C39.9875 15.8625 39.2625 16.025 38.425 16.025C37.775 16.025 37.2 15.8875 36.6875 15.6C36.175 15.3125 35.7625 14.925 35.4375 14.4125C35.1125 13.9 34.925 13.3125 34.875 12.65H44.125C44.1625 12.4 44.1875 12.175 44.2 11.9625C44.225 11.75 44.225 11.55 44.225 11.35C44.2375 10.1625 44 9.12501 43.5 8.21251C43 7.30001 42.3 6.59999 41.4 6.08749C40.5 5.57499 39.45 5.32501 38.3 5.32501C37.15 5.32501 36.125 5.59998 35.2125 6.14998C34.3 6.69998 33.5875 7.45 33.075 8.4C32.5625 9.35 32.3 10.3875 32.3 11.65C32.3 12.9125 32.5625 14.0375 33.0875 15.025C33.6125 16.0125 34.3375 16.775 35.2625 17.3375ZM41.2 8.99998C41.5 9.48748 41.65 10.025 41.65 10.625H34.9C34.9875 10.0125 35.1875 9.4625 35.5125 8.9875C35.8375 8.5125 36.2375 8.13751 36.7125 7.86251C37.1875 7.58751 37.7125 7.44999 38.275 7.44999C38.9125 7.44999 39.475 7.58751 39.9875 7.86251C40.5 8.13751 40.9 8.51248 41.2 8.99998Z" fill="var(--fill-0, #1F1F1F)"/>
<path d="M51.95 18.175C50.75 18.175 49.6875 17.9 48.775 17.3625C47.8625 16.825 47.15 16.075 46.6375 15.125C46.125 14.175 45.875 13.0625 45.875 11.8C45.875 10.5375 46.1375 9.38749 46.65 8.42499C47.1625 7.46249 47.8875 6.69998 48.8 6.14998C49.7125 5.59998 50.7875 5.32501 52 5.32501C53.2875 5.32501 54.4125 5.62501 55.3875 6.22501C56.3625 6.82501 57.0625 7.63748 57.5 8.64998L55.375 9.39999C55.125 8.81249 54.7 8.34999 54.1125 7.99999C53.525 7.64999 52.85 7.47501 52.1 7.47501C51.35 7.47501 50.675 7.65 50.125 8.0125C49.575 8.375 49.15 8.87498 48.85 9.51248C48.55 10.15 48.4 10.9125 48.4 11.775C48.4 13.075 48.7375 14.1125 49.4 14.875C50.0625 15.6375 50.9625 16.025 52.1 16.025C52.85 16.025 53.525 15.8625 54.1125 15.525C54.7 15.1875 55.15 14.7375 55.45 14.15L57.55 14.9C57.0875 15.9 56.35 16.7 55.35 17.2875C54.35 17.875 53.2125 18.175 51.95 18.175Z" fill="var(--fill-0, #1F1F1F)"/>
<path d="M62.2875 0H59.9125V18H62.2875V12.75H63.3125L67.9875 18H71.2125L65.3875 11.75L71.1875 5.49999H67.9875L63.3125 10.725H62.2875V0Z" fill="var(--fill-0, #1F1F1F)"/>
<path fill-rule="evenodd" clip-rule="evenodd" d="M77.7 18.175C76.5125 18.175 75.45 17.9125 74.5125 17.3875C73.575 16.8625 72.8375 16.125 72.3 15.1625C71.7625 14.2 71.5 13.075 71.5 11.775C71.5 10.475 71.775 9.31249 72.325 8.34999C72.875 7.38749 73.625 6.63748 74.575 6.11248C75.525 5.58748 76.5875 5.32501 77.775 5.32501C78.9625 5.32501 80.025 5.58748 80.9875 6.11248C81.95 6.63748 82.7 7.37498 83.25 8.33748C83.8 9.29998 84.075 10.425 84.075 11.725C84.075 13.025 83.8 14.1875 83.2375 15.15C82.675 16.1125 81.9125 16.8625 80.95 17.3875C79.9875 17.9125 78.9 18.175 77.7 18.175ZM77.675 16.025C78.3375 16.025 78.9625 15.875 79.55 15.5625C80.1375 15.25 80.6125 14.7875 80.9875 14.15C81.3625 13.5125 81.55 12.7125 81.55 11.725C81.55 10.7375 81.375 9.9625 81.0125 9.3375C80.65 8.7125 80.1875 8.25001 79.6 7.93751C79.0125 7.62501 78.3875 7.47501 77.725 7.47501C77.0625 7.47501 76.475 7.62501 75.9125 7.93751C75.35 8.25001 74.9 8.71251 74.55 9.35001C74.2 9.98751 74.025 10.7875 74.025 11.775C74.025 12.7625 74.2 13.5375 74.5375 14.1625C74.875 14.7875 75.325 15.25 75.875 15.5625C76.425 15.875 77.025 16.025 77.675 16.025Z" fill="var(--fill-0, #1F1F1F)"/>
<path d="M94.75 18H96.9V5.50003H94.55V12.35C94.55 13.5625 94.275 14.4875 93.7375 15.1C93.2 15.7125 92.4625 16.025 91.5 16.025C90.5375 16.025 89.8125 15.725 89.3375 15.125C88.8625 14.525 88.625 13.65 88.625 12.5V5.50003H86.25V12.8C86.25 13.9875 86.45 14.975 86.8375 15.7625C87.225 16.55 87.7875 17.15 88.5 17.5625C89.2125 17.975 90.0625 18.175 91.025 18.175C91.775 18.175 92.45 18.0375 93.0625 17.75C93.675 17.4625 94.175 17.0625 94.575 16.525L94.75 18Z" fill="var(--fill-0, #1F1F1F)"/>
<path d="M100.762 5.49995V1.99997H103.137V5.49995H106.262V7.59995H103.137V13.75C103.137 14.5125 103.287 15.0624 103.6 15.3749C103.912 15.6874 104.3 15.875 104.775 15.9125C105.25 15.95 105.75 15.9374 106.262 15.8749V17.9C105.575 18.05 104.912 18.1 104.25 18.0375C103.587 17.975 103 17.7875 102.475 17.475C101.95 17.1625 101.537 16.7 101.225 16.0875C100.912 15.475 100.762 14.7 100.762 13.75V7.59995H98.9625V5.49995H100.762Z" fill="var(--fill-0, #1F1F1F)"/>
<path d="M117.188 14.675C116.875 14.275 116.675 13.8375 116.575 13.375L114.3 14.225C114.487 15.0125 114.85 15.7 115.413 16.2875C115.975 16.875 116.687 17.3375 117.55 17.675C118.412 18.0125 119.388 18.175 120.475 18.175C121.788 18.175 122.887 17.9375 123.762 17.475C124.637 17.0125 125.287 16.3875 125.725 15.625C126.163 14.8625 126.375 14.0125 126.375 13.075C126.375 12.2125 126.213 11.4875 125.875 10.9125C125.537 10.3375 125.1 9.86248 124.562 9.47498C124.025 9.08748 123.412 8.77501 122.75 8.52501C122.087 8.27501 121.4 8.03751 120.7 7.82501C120.037 7.62501 119.425 7.41251 118.862 7.20001C118.3 6.98751 117.863 6.71251 117.525 6.37501C117.188 6.03751 117.025 5.5875 117.025 5C117.025 4.4625 117.175 4.01249 117.463 3.62499C117.75 3.23749 118.15 2.95 118.638 2.7375C119.125 2.525 119.688 2.43749 120.3 2.44999C120.9 2.44999 121.437 2.54998 121.925 2.74998C122.412 2.94998 122.812 3.21248 123.125 3.53748C123.438 3.86248 123.65 4.2125 123.75 4.575L126.025 3.75C125.775 3.0375 125.387 2.425 124.862 1.9125C124.338 1.4 123.687 1.0125 122.925 0.737495C122.162 0.462495 121.287 0.325012 120.325 0.325012C119.175 0.325012 118.162 0.525013 117.288 0.912514C116.413 1.30001 115.737 1.86248 115.25 2.59998C114.762 3.33748 114.525 4.21249 114.525 5.22499C114.525 6.03749 114.675 6.725 114.975 7.2625C115.275 7.8 115.688 8.24999 116.2 8.58749C116.713 8.92499 117.3 9.21248 117.938 9.43748C118.575 9.66249 119.237 9.875 119.9 10.075C120.662 10.2875 121.35 10.5375 121.938 10.8125C122.525 11.0875 123 11.425 123.337 11.8125C123.675 12.2 123.85 12.7 123.85 13.3C123.85 14.0375 123.575 14.675 123.013 15.2125C122.45 15.75 121.587 16.025 120.425 16.025C119.637 16.025 118.987 15.9 118.45 15.65C117.913 15.4 117.5 15.075 117.188 14.675Z" fill="var(--fill-0, #1F1F1F)"/>
<path d="M139.288 18H137.138L136.963 16.525C136.562 17.0625 136.063 17.4625 135.45 17.75C134.837 18.0375 134.163 18.175 133.412 18.175C132.45 18.175 131.6 17.975 130.888 17.5625C130.175 17.15 129.613 16.55 129.225 15.7625C128.838 14.975 128.638 13.9875 128.638 12.8V5.50003H131.012V12.5C131.012 13.65 131.25 14.525 131.725 15.125C132.2 15.725 132.925 16.025 133.888 16.025C134.85 16.025 135.588 15.7125 136.125 15.1C136.662 14.4875 136.938 13.5625 136.938 12.35V5.50003H139.288V18Z" fill="var(--fill-0, #1F1F1F)"/>
<path d="M144.513 5.49999H142.363V18H144.713V11.175C144.713 9.9625 144.975 9.03751 145.513 8.41251C146.05 7.78751 146.825 7.47501 147.763 7.47501C148.7 7.47501 149.413 7.77499 149.9 8.38749C150.388 8.99999 150.638 9.8875 150.638 11.05V18H152.988V10.75C152.988 9.55001 152.788 8.54998 152.4 7.74998C152.013 6.94998 151.463 6.35 150.75 5.9375C150.038 5.525 149.2 5.32501 148.238 5.32501C147.488 5.32501 146.8 5.46251 146.188 5.75001C145.575 6.03751 145.063 6.4375 144.663 6.95L144.513 5.49999Z" fill="var(--fill-0, #1F1F1F)"/>
</g>
</svg>
