<svg preserveAspectRatio="none" width="100%" height="100%" overflow="visible" style="display: block;" viewBox="0 0 38.9204 40" fill="none" xmlns="http://www.w3.org/2000/svg">
<path id="Symbol" d="M38.9204 20C38.9204 31.052 30.1454 40 19.3329 40C13.5446 40 8.3467 37.435 4.75797 33.357H16.0683C17.8742 33.357 19.3329 31.8676 19.3329 30.0236C19.3329 28.1797 17.8742 26.6667 16.0683 26.6667H0.845089C0.845089 26.6667 0.821936 26.6076 0.810359 26.5721C0.463062 25.5319 0.196802 24.4563 0 23.3333H8.57823C10.3842 23.3333 11.8428 21.844 11.8428 20C11.8428 18.156 10.3842 16.6667 8.57823 16.6667H0C0.196802 15.5556 0.463062 14.4563 0.821936 13.4279C0.821936 13.3924 0.845089 13.3688 0.856665 13.3333H16.0567C17.8626 13.3333 19.3213 11.844 19.3213 10C19.3213 8.15603 17.8626 6.66667 16.0567 6.66667H4.72324C6.01981 5.20095 7.51319 3.92435 9.16864 2.89598C12.1322 1.06383 15.6052 0 19.3213 0C30.1454 0 38.9088 8.94799 38.9088 20H38.9204Z" fill="var(--fill-0, #FFBC00)"/>
</svg>
