<svg preserveAspectRatio="none" width="100%" height="100%" overflow="visible" style="display: block;" viewBox="0 0 93.6327 27.4458" fill="none" xmlns="http://www.w3.org/2000/svg">
<g id="Typography">
<path fill-rule="evenodd" clip-rule="evenodd" d="M35.2416 0H34.7881C33.4278 0 33.079 0.342776 33.079 1.73752V9.95233C32.0558 8.29755 30.1954 7.44652 27.5329 7.44652C22.2542 7.44652 19.6032 10.2596 19.6032 15.8623V19.1836C19.6032 24.7035 22.4867 27.4457 28.3002 27.4457C34.1138 27.4457 36.9508 24.6326 36.9508 19.1836V1.73752C36.9508 0.354596 36.6136 0 35.2416 0ZM33.079 19.1009C33.079 22.375 31.9046 23.6988 28.2537 23.6988C24.6028 23.6988 23.5099 22.4577 23.5099 19.1009V15.7795C23.5099 12.4227 24.6494 11.1461 28.2537 11.1461C31.8581 11.1461 33.079 12.4227 33.079 15.7795V19.1009Z" fill="#0D2772"/>
<path fill-rule="evenodd" clip-rule="evenodd" d="M8.42961 7.44651C2.81375 7.44651 0 10.2242 0 15.815V19.1718C0 24.9163 2.91839 27.4339 9.33652 27.4339C11.162 27.4339 12.7898 27.2448 14.2664 26.8193C15.5919 26.4765 15.8244 26.2046 15.8244 24.9281V24.4198C15.8244 23.0724 15.4872 22.7651 14.2664 23.0724C12.5572 23.4979 10.9294 23.687 9.33652 23.687C5.4996 23.687 3.90669 22.5641 3.90669 19.751V18.9H14.4641C15.8709 18.9 16.243 18.5572 16.3941 17.127C16.4081 16.8201 16.4239 16.5433 16.4378 16.299C16.4588 15.9318 16.4755 15.6379 16.4755 15.4249C16.4755 10.1769 13.7083 7.43469 8.42961 7.43469V7.44651ZM12.7898 15.6613H3.90669V14.6921C3.90669 12.139 5.38332 10.8743 8.31334 10.8743C11.2434 10.8743 12.7898 12.1508 12.7898 14.6921V15.6613Z" fill="#0D2772"/>
<path d="M54.8798 7.87207H55.3797C56.7517 7.87207 57.0889 8.21485 57.0889 9.60959V19.9165C57.0889 24.9754 54.3682 27.4458 48.857 27.4458C43.3457 27.4458 40.5785 24.9281 40.5785 19.9165V9.60959C40.5785 8.21485 40.9157 7.87207 42.2877 7.87207H42.776C44.148 7.87207 44.4852 8.21485 44.4852 9.60959V19.9165C44.4852 22.6587 45.5432 23.6989 48.8453 23.6989C52.1474 23.6989 53.1706 22.6587 53.1706 19.9165V9.60959C53.1706 8.21485 53.5194 7.87207 54.8798 7.87207Z" fill="#0D2772"/>
<path d="M73.8434 23.427H64.4371C63.6349 23.427 63.2279 23.1906 63.2279 22.7296C63.2279 22.3869 63.4953 22.0323 64.0186 21.6895L72.4482 16.4769C73.6225 15.7441 74.3783 15.0822 74.762 14.4321C75.1805 13.7702 75.3666 12.8837 75.3666 11.8435C75.3666 8.94768 74.1922 7.87207 70.9599 7.87207H62.228C61.0188 7.87207 60.7165 8.17939 60.7165 9.40865V9.91691C60.7165 11.1462 61.0188 11.4653 62.228 11.4653H70.5762C71.3669 11.4653 71.7854 11.7017 71.7854 12.1154C71.7854 12.4227 71.4831 12.8128 70.8785 13.2383L62.5303 18.4509C60.6002 19.6447 59.6468 21.1931 59.6468 23.0842C59.6468 25.7082 61.0885 27.0203 64.0069 27.0203H73.8434C75.0526 27.0203 75.3666 26.7129 75.3666 25.4837V24.9754C75.3666 23.7461 75.0643 23.427 73.8434 23.427Z" fill="#0D2772"/>
<path d="M82.7033 23.427H92.1212C93.3304 23.427 93.6327 23.7461 93.6327 24.9754V25.4837C93.6327 26.7129 93.3304 27.0203 92.1212 27.0203H82.2847C79.3663 27.0203 77.9246 25.7082 77.9246 23.0842C77.9246 21.1931 78.8663 19.6447 80.8081 18.4509L89.1563 13.2383C89.7609 12.8128 90.0632 12.4227 90.0632 12.1154C90.0632 11.7017 89.6446 11.4653 88.8424 11.4653H80.4941C79.2849 11.4653 78.9826 11.1462 78.9826 9.91691V9.40865C78.9826 8.17939 79.2849 7.87207 80.4941 7.87207H89.2261C92.4584 7.87207 93.6327 8.94768 93.6327 11.8435C93.6327 12.8837 93.4467 13.7702 93.0281 14.4321C92.6444 15.0822 91.8887 15.7441 90.7143 16.4769L82.2847 21.6895C81.7499 22.0323 81.4824 22.3869 81.4824 22.7296C81.4824 23.1906 81.901 23.427 82.7033 23.427Z" fill="#0D2772"/>
</g>
</svg>
