<svg preserveAspectRatio="none" width="100%" height="100%" overflow="visible" style="display: block;" viewBox="0 0 42.7324 40" fill="none" xmlns="http://www.w3.org/2000/svg">
<g id="Symbol">
<path id="Vector" d="M39.0144 2.42046H22.7324V37.592H39.0144V2.42046Z" fill="var(--fill-0, #0D2772)"/>
<path id="Vector_2" d="M22.7324 40C33.7781 40 42.7324 31.0457 42.7324 20C42.7324 8.9543 33.7781 0 22.7324 0C11.6867 0 2.73238 8.9543 2.73238 20C2.73238 31.0457 11.6867 40 22.7324 40Z" fill="var(--fill-0, #FFBC00)"/>
<path id="Vector_3" d="M9.23272 34.2109H21.4224C23.3687 34.2109 24.9408 32.6388 24.9408 30.6925C24.9408 28.7461 23.3687 27.1491 21.4224 27.1491H5.02807C5.02807 27.1491 5.00312 27.0867 4.99064 27.0493C4.61634 25.9514 4.32941 24.816 4.1173 23.6307H13.3625C15.3088 23.6307 16.8808 22.0587 16.8808 20.1123C16.8808 18.166 15.3088 16.5939 13.3625 16.5939H4.1173C4.32941 15.4211 4.61636 14.2608 5.00313 13.1753C5.00313 13.1379 5.02808 13.1129 5.04056 13.0755H21.4224C23.3687 13.0755 24.9408 11.5034 24.9408 9.55709C24.9408 7.61074 23.3687 6.03871 21.4224 6.03871H9.20774C10.4554 4.65381 11.8902 3.43107 13.4623 2.42046H0V37.592H13.1379C11.7031 36.6188 10.3806 35.496 9.22023 34.2109H9.23272Z" fill="var(--fill-0, #0D2772)"/>
</g>
</svg>
