<svg preserveAspectRatio="none" width="100%" height="100%" overflow="visible" style="display: block;" viewBox="0 0 97.0875 23" fill="none" xmlns="http://www.w3.org/2000/svg">
<g id="Typography">
<path fill-rule="evenodd" clip-rule="evenodd" d="M57.7 0V7.22919C57.3254 6.74917 56.84 6.33322 56.2375 5.98751C55.475 5.55001 54.6125 5.32501 53.475 5.32501C52.3375 5.32501 51.35 5.58749 50.5125 6.12499C49.675 6.66249 49.0125 7.41248 48.5375 8.37498C48.0625 9.33748 47.825 10.4625 47.825 11.75C47.825 13.0375 48.0625 14.1625 48.5375 15.125C49.0125 16.0875 49.675 16.8375 50.5125 17.375C51.35 17.9125 52.3375 18.175 53.475 18.175C54.4875 18.175 55.35 17.975 56.0625 17.575C56.775 17.175 57.3375 16.6875 57.75 16.125L57.925 18H60.075V0H57.7ZM50.35 11.75C50.35 13.0375 50.6875 14.0625 51.35 14.85C52.0125 15.6375 52.9125 16.025 54.025 16.025C54.7125 16.025 55.325 15.8625 55.875 15.525C56.425 15.1875 56.8625 14.7 57.2 14.0625C57.5375 13.425 57.7 12.65 57.7 11.75C57.7 10.85 57.5375 10.0875 57.2 9.45C56.8625 8.8125 56.425 8.32498 55.875 7.98748C55.325 7.64998 54.7125 7.47498 54.025 7.47498C52.925 7.47498 52.0375 7.86248 51.3625 8.64998C50.6875 9.43748 50.35 10.4625 50.35 11.75Z" fill="var(--fill-0, #1F1F1F)"/>
<path d="M2.5 18H0V0.500031H2.74998L8.97499 14.675L15.175 0.500031H17.9V18H15.425V5.35004L9.87499 18H8.05L2.5 5.35004V18Z" fill="var(--fill-0, #1F1F1F)"/>
<path d="M29.7 5.50003H32.15L24.9 23H22.575L24.775 17.75L19.825 5.50003H22.425L26.05 14.975L29.7 5.50003Z" fill="var(--fill-0, #1F1F1F)"/>
<path d="M36.575 2.60002H45.775V0.500031H34.075V18H45.775V15.9H36.575V10.175H43.475V8.07503H36.575V2.60002Z" fill="var(--fill-0, #1F1F1F)"/>
<path d="M71.4375 18H73.5875V5.50003H71.2375V12.35C71.2375 13.5625 70.9625 14.4875 70.425 15.1C69.8875 15.7125 69.15 16.025 68.1875 16.025C67.225 16.025 66.5 15.725 66.025 15.125C65.55 14.525 65.3125 13.65 65.3125 12.5V5.50003H62.9375V12.8C62.9375 13.9875 63.1375 14.975 63.525 15.7625C63.9125 16.55 64.475 17.15 65.1875 17.5625C65.9 17.975 66.75 18.175 67.7125 18.175C68.4625 18.175 69.1375 18.0375 69.75 17.75C70.3625 17.4625 70.8625 17.0625 71.2625 16.525L71.4375 18Z" fill="var(--fill-0, #1F1F1F)"/>
<path d="M85.6125 7.42504L78.9875 15.9H85.6375V18H76.0375V16.075L82.6875 7.60002H76.0625V5.50003H85.6125V7.42504Z" fill="var(--fill-0, #1F1F1F)"/>
<path d="M90.4375 15.9L97.0625 7.42504V5.50003H87.5125V7.60002H94.1375L87.4875 16.075V18H97.0875V15.9H90.4375Z" fill="var(--fill-0, #1F1F1F)"/>
</g>
</svg>
