<svg preserveAspectRatio="none" width="100%" height="100%" overflow="visible" style="display: block;" viewBox="0 0 72.8625 18.175" fill="none" xmlns="http://www.w3.org/2000/svg">
<g id="Typography">
<path d="M15.975 0H18.325V18H15.975V0Z" fill="#1F1F1F"/>
<path fill-rule="evenodd" clip-rule="evenodd" d="M0 18V0.500031H7.425C8.6625 0.500031 9.6875 0.712531 10.5 1.12503C11.3125 1.53753 11.925 2.08754 12.3375 2.77504C12.75 3.46254 12.95 4.21251 12.95 5.05001C12.95 5.83751 12.8 6.48753 12.5125 7.02503C12.225 7.56253 11.8375 7.98752 11.3625 8.30002C10.8875 8.61252 10.35 8.83753 9.75 8.97503V9.15001C10.4625 9.25001 11.1 9.46252 11.6375 9.78752C12.175 10.1125 12.6 10.5625 12.9125 11.15C13.225 11.7375 13.375 12.4625 13.375 13.325C13.375 14.1875 13.15 14.9875 12.7 15.7C12.25 16.4125 11.6 16.975 10.7625 17.3875C9.925 17.8 8.9 18 7.7 18H0ZM10.45 5.35004C10.45 4.50004 10.175 3.82502 9.6125 3.33752C9.05 2.85002 8.25 2.60002 7.2 2.60002H2.5V8.07503H7.225C8.2375 8.07503 9.0375 7.83751 9.6 7.35001C10.1625 6.86251 10.45 6.20004 10.45 5.35004ZM2.5 15.9H7.475C8.5375 15.9 9.375 15.65 9.9875 15.1625C10.6 14.675 10.9 13.9625 10.9 13.05C10.9 12.1375 10.575 11.4 9.9375 10.9125C9.3 10.425 8.45 10.175 7.4 10.175H2.5V15.9Z" fill="#1F1F1F"/>
<path d="M21.85 2.85C22.15 3.15 22.525 3.29998 22.975 3.29998C23.4125 3.29998 23.775 3.15 24.0875 2.85C24.4 2.55 24.55 2.19999 24.55 1.74999C24.55 1.29999 24.4 0.924988 24.0875 0.612488C23.775 0.299988 23.425 0.149994 22.975 0.149994C22.525 0.149994 22.15 0.299988 21.85 0.612488C21.55 0.924988 21.4 1.31249 21.4 1.74999C21.4 2.18749 21.55 2.55 21.85 2.85Z" fill="#1F1F1F"/>
<path d="M24.15 5.49999H21.775V18H24.15V5.49999Z" fill="#1F1F1F"/>
<path d="M27.6 5.50003H29.75L29.9 6.95004C30.3 6.43754 30.8125 6.03751 31.425 5.75001C32.0375 5.46251 32.725 5.32501 33.475 5.32501C34.4375 5.32501 35.275 5.52504 35.9875 5.93754C36.7 6.35004 37.25 6.95001 37.6375 7.75002C38.025 8.55001 38.225 9.55001 38.225 10.75V18H35.875V11.05C35.875 9.88753 35.625 9.00003 35.1375 8.38753C34.65 7.77503 33.9375 7.47501 33 7.47501C32.0625 7.47501 31.2875 7.78751 30.75 8.41251C30.2125 9.03751 29.95 9.96254 29.95 11.175V18H27.6V5.50003Z" fill="#1F1F1F"/>
<path d="M43.4875 0H41.1125V18H43.4875V12.75H44.5125L49.1875 18H52.4125L46.5875 11.75L52.3875 5.49999H49.1875L44.5125 10.725H43.4875V0Z" fill="#1F1F1F"/>
<path fill-rule="evenodd" clip-rule="evenodd" d="M58.85 18.175C57.65 18.175 56.5875 17.9 55.6625 17.3375C54.7375 16.775 54.0125 16.0125 53.4875 15.025C52.9625 14.0375 52.7 12.9125 52.7 11.65C52.7 10.3875 52.9625 9.35004 53.475 8.40004C53.9875 7.45004 54.7 6.70002 55.6125 6.15002C56.525 5.60002 57.55 5.32501 58.7 5.32501C59.85 5.32501 60.9 5.57503 61.8 6.08753C62.7 6.60003 63.4 7.30001 63.9 8.21251C64.4 9.12501 64.6375 10.1625 64.625 11.35C64.625 11.55 64.625 11.75 64.6 11.9625C64.5875 12.175 64.5625 12.4 64.525 12.65H55.275C55.325 13.3125 55.5125 13.9 55.8375 14.4125C56.1625 14.925 56.575 15.3125 57.0875 15.6C57.6 15.8875 58.175 16.025 58.825 16.025C59.6625 16.025 60.3875 15.8625 61 15.5375C61.6125 15.2125 62.05 14.775 62.3 14.225L64.35 14.95C63.85 15.9625 63.125 16.7625 62.1625 17.325C61.2 17.8875 60.1 18.175 58.85 18.175ZM62.05 10.625C62.05 10.025 61.9 9.48751 61.6 9.00002C61.3 8.51252 60.9 8.13751 60.3875 7.86251C59.875 7.58751 59.3125 7.45003 58.675 7.45003C58.1125 7.45003 57.5875 7.58751 57.1125 7.86251C56.6375 8.13751 56.2375 8.51254 55.9125 8.98754C55.5875 9.46254 55.3875 10.0125 55.3 10.625H62.05Z" fill="#1F1F1F"/>
<path d="M67.3625 1.99997V5.49999H65.5625V7.59998H67.3625V13.75C67.3625 14.7 67.5125 15.475 67.825 16.0875C68.1375 16.7 68.55 17.1625 69.075 17.475C69.6 17.7875 70.1875 17.975 70.85 18.0375C71.5125 18.1 72.175 18.05 72.8625 17.9V15.875C72.35 15.9375 71.85 15.95 71.375 15.9125C70.9 15.875 70.5125 15.6875 70.2 15.375C69.8875 15.0625 69.7375 14.5125 69.7375 13.75V7.59998H72.8625V5.49999H69.7375V1.99997H67.3625Z" fill="#1F1F1F"/>
</g>
</svg>
